<?xml version="1.0" encoding="utf-8"?>
<svg
  xmlns="http://www.w3.org/2000/svg"
  x="0px"
  y="0px"
  viewBox="0 0 100 100"
  style="enable-background: new 0 0 100 100"
  xml:space="preserve"
  fill="crimson"
>
  <path
    d="M96.3,42.3c-0.5-2.8-1.3-5.6-2.3-8.3c-1.7-4.4-3.9-8.4-6.8-12.1c-2.4-3.1-5.2-5.9-8.4-8.3c-3.3-2.5-6.9-4.6-10.8-6.2
		c-4.7-1.9-9.6-3.1-14.7-3.4c-4.7-0.3-9.3,0-13.8,1.1c-4,0.9-7.9,2.3-11.5,4.2c-4.5,2.4-8.6,5.4-12.2,9.1c-3.1,3.2-5.7,6.8-7.7,10.8
		c-0.9,1.7-1.6,3.4-2.2,5.2c-0.1,0.2-0.2,0.4,0,0.6c0.1,0,0.1,0,0.2-0.1c1-0.8,2-1.6,3.1-2.3c0.3-0.2,0.5-0.5,0.7-0.9
		c0.3-0.5,0.5-1.1,0.8-1.6c1.9-3.6,4.3-6.9,7.2-9.9c3.8-3.9,8.1-7,13-9.3C36,8.5,41.6,7.1,47.5,6.7c5-0.3,9.8,0.2,14.7,1.5
		c4.1,1.1,8,2.9,11.6,5.1c4.3,2.6,7.9,6,11.1,9.9c3.8,4.7,6.4,10.1,8,16c0.7,2.7,1.1,5.4,1.3,8.2c0.1,2.2,0,4.4-0.2,6.7
		c0,0.2-0.1,0.4-0.2,0.6c-0.2,0-0.3,0-0.4,0c-1.6-0.7-3-1.5-4.1-3c-1.1-1.5-1.9-3.1-2.3-4.9c-0.2-0.8-0.4-1.7-0.7-2.5
		c-0.5-1.5-1.2-2.8-2.3-3.9c-0.5-0.6-0.8-1.2-0.7-2c0.1-1.4,0-2.8-0.3-4.2c-0.5-2.8-1.5-5.4-2.9-7.8c-0.4-0.6-0.8-1.2-1.2-1.7
		c-0.7-0.8-1.1-0.8-1.6,0.1c-0.6,0.9-1.1,1.9-1.6,2.9c-1,2-1.9,3.9-2.7,6c-0.4,1.2-0.3,1.1-1.7,1.2c-2,0.1-3.9,0.5-5.7,1.2
		c-3,1.1-5.2,3.1-6.4,6.2c-0.1,0.2-0.2,0.5-0.3,0.7c-0.2,0.4-0.4,0.9-0.7,1.3c-0.5,0.8-1.2,1.5-2.1,1.8c-0.5,0.2-1,0.3-1.5,0.5
		c-0.7,0.3-1.1,0.7-1.1,1.5c0,0.3,0,0.5,0.1,0.8c0.5,1.6,1.1,3.2,2.2,4.6c1.3,1.7,3,2.9,5.2,3.3c0.4,0.1,0.9,0.1,1.3,0.2
		c1.2,0.3,2.4,0.7,3.4,1.5c1.5,1.3,2.9,2.7,3.7,4.5c0.3,0.6,0.6,1.3,0.9,1.9c1,2.5,1.7,5,1.7,7.7c0,0.5,0,1,0,1.5
		c0.1,3.1-0.8,6.1-2.1,8.9c-1.4,3-3.4,5.6-6,7.8c-2.1,1.8-4.4,3.3-7,4.3c-0.6,0.2-1.1,0.5-1.7,0.7c-0.2,0.1-0.4,0.2-0.5,0.4l0,0
		c0.8-0.1,1.6-0.2,2.4-0.3c5.1-0.8,10-2.3,14.6-4.7c2.5-1.3,4.9-2.8,7.2-4.6c2.8-2.2,5.3-4.7,7.6-7.4c3-3.7,5.4-7.7,7.2-12.1
		c1.6-4,2.6-8.2,3-12.6C97.1,50.3,97.1,46.3,96.3,42.3z"
  />
  <path
    d="M50.9,44.9c-0.4-0.2-0.7-0.3-1.1-0.4c-1.9-0.6-3.8-1.2-5.7-1.8c-0.9-0.3-1.7-0.6-2.5-1.1c-0.5-0.3-0.9-0.7-1.1-1.3
		c-0.2-0.6-0.4-1.1-0.6-1.7c-0.6-2.2-1.8-4-3.6-5.5c-1.7-1.3-3.6-2.3-5.6-2.9c-1.6-0.5-3.2-0.9-4.9-1c-1-0.1-2.1-0.1-3.1,0
		c-1.1,0.2-2.3,0.3-3.5,0.4c-1.5,0-2.9,0.4-4.1,1.3c-0.8,0.6-1.5,1.1-2.3,1.6C11.2,33.7,9.6,34.8,8,36c-0.8,0.6-1.6,1.3-2.3,2.1
		c-0.7,0.8-1,1.7-1,2.8c0.1,1.4,0.4,2.7,1,4c0.3,0.6,0.6,1.3,1,1.9c1.1,2,2.6,3.7,4.3,5.2c0.8,0.7,1.8,1.2,3,1.4
		c0.8,0.1,1.6,0,2.3-0.3c0.8-0.4,1.5-1,2-1.8c0.4-0.6,0.7-1.3,1-2c0.7-1.8,1.2-3.6,1.4-5.5c0.1-1.1,0.3-2.2,0.4-3.4
		c0.2-1.4,0.4-2.7,0.8-4.1c0.2-0.6,0.4-1.1,0.7-1.7c0.1-0.1,0.2-0.3,0.4-0.2c0.1,0.3,0,0.6,0,0.9c-0.3,1.4-0.4,2.8-0.5,4.2
		c0,1.3,0,2.6-0.1,3.9c0,1.6-0.2,3.1-0.5,4.6c-0.1,0.7-0.3,1.3-0.5,2c-0.6,1.8-1.5,3.4-3.2,4.6c-1.9,1.3-3.8,1.4-5.9,0.6
		C11,54.6,10,53.8,9,52.9c-1.6-1.5-2.9-3.3-4-5.2c-0.5-0.8-0.9-1.7-1.3-2.5c-0.1-0.1-0.1-0.3-0.4-0.3c-0.1,0.6-0.1,1.2-0.2,1.8
		c-0.1,2.5-0.1,5,0.1,7.4c0.3,3.2,0.9,6.3,1.9,9.4c1.1,3.6,2.7,7,4.6,10.2c2.8,4.6,6.3,8.5,10.4,11.9c3.5,2.8,7.2,5.1,11.4,6.9
		c2.4,1,4.9,1.9,7.5,2.5c1.6,0.3,3.2,0.6,4.8,0.9c0.3,0.1,0.7,0.1,1,0c0-0.1,0-0.1,0-0.1c-0.3-0.1-0.6-0.3-0.9-0.4
		c-3-1-5.6-2.6-8-4.6c-3.3-2.6-5.7-5.9-7.1-9.9c-0.8-2.3-1.4-4.7-1.4-7.2c-0.1-2.7,0.4-5.4,1.3-8c0.7-1.9,1.6-3.6,2.9-5.2
		c1.2-1.5,2.7-2.4,4.6-2.6c0.8-0.1,1.6-0.1,2.4-0.1c1,0,2,0,3,0c1.4,0,2.7-0.3,4-0.8c1.8-0.7,3.1-2,4.1-3.5c1.3-1.8,1.9-3.9,2.3-6.1
		c0-0.2,0.1-0.3,0.1-0.5C52.1,46,51.7,45.3,50.9,44.9z"
  />
  <path
    d="M71.1,32.8c0.6-1.3,1.2-2.5,1.9-3.8c-0.2-0.3-0.4-0.5-0.6-0.8c-0.9-0.9-1.8-1.7-2.8-2.6c0,0-0.1-0.1-0.1-0.1
		c-0.6-0.5-0.9-0.4-1.1,0.4c-0.1,0.3-0.1,0.6-0.1,1c-0.1,1.5-0.1,3-0.1,4.4c0,0.4,0,0.8,0,1.3c0,0.2,0.1,0.4,0.2,0.6
		C69.3,33.2,70.2,33,71.1,32.8z"
  />
  <path
    d="M74,280.7c-0.2-0.1-0.5-0.1-0.7-0.2C73.6,280.6,73.8,280.6,74,280.7C74,280.7,74,280.7,74,280.7z"
  />
</svg>
